<svg id="visual" viewBox="0 0 900 600" width="900" height="600" xmlns="http://www.w3.org/2000/svg" xmlns:xlink="http://www.w3.org/1999/xlink" version="1.1"><path d="M0 169L82 271L164 247L245 211L327 109L409 199L491 259L573 199L655 67L736 217L818 181L900 187L900 0L818 0L736 0L655 0L573 0L491 0L409 0L327 0L245 0L164 0L82 0L0 0Z" fill="#6d0cff"></path><path d="M0 361L82 415L164 397L245 343L327 361L409 337L491 373L573 295L655 283L736 361L818 343L900 331L900 185L818 179L736 215L655 65L573 197L491 257L409 197L327 107L245 209L164 245L82 269L0 167Z" fill="#6c2ffd"></path><path d="M0 421L82 487L164 469L245 457L327 439L409 511L491 421L573 415L655 439L736 493L818 445L900 457L900 329L818 341L736 359L655 281L573 293L491 371L409 335L327 359L245 341L164 395L82 413L0 359Z" fill="#6c42fa"></path><path d="M0 469L82 541L164 505L245 505L327 535L409 553L491 493L573 499L655 487L736 529L818 499L900 517L900 455L818 443L736 491L655 437L573 413L491 419L409 509L327 437L245 455L164 467L82 485L0 419Z" fill="#6e50f6"></path><path d="M0 601L82 601L164 601L245 601L327 601L409 601L491 601L573 601L655 601L736 601L818 601L900 601L900 515L818 497L736 527L655 485L573 497L491 491L409 551L327 533L245 503L164 503L82 539L0 467Z" fill="#715df2"></path></svg>