<svg id="visual" viewBox="0 0 900 600" width="900" height="600" xmlns="http://www.w3.org/2000/svg" xmlns:xlink="http://www.w3.org/1999/xlink" version="1.1"><path d="M0 85L12.5 82C25 79 50 73 75 72C100 71 125 75 150 78C175 81 200 83 225 82C250 81 275 77 300 75C325 73 350 73 375 76C400 79 425 85 450 83C475 81 500 71 525 73C550 75 575 89 600 90C625 91 650 79 675 80C700 81 725 95 750 98C775 101 800 93 825 90C850 87 875 89 887.5 90L900 91L900 0L887.5 0C875 0 850 0 825 0C800 0 775 0 750 0C725 0 700 0 675 0C650 0 625 0 600 0C575 0 550 0 525 0C500 0 475 0 450 0C425 0 400 0 375 0C350 0 325 0 300 0C275 0 250 0 225 0C200 0 175 0 150 0C125 0 100 0 75 0C50 0 25 0 12.5 0L0 0Z" fill="#9cb0ff"></path><path d="M0 145L12.5 139C25 133 50 121 75 119C100 117 125 125 150 130C175 135 200 137 225 134C250 131 275 123 300 122C325 121 350 127 375 130C400 133 425 133 450 133C475 133 500 133 525 135C550 137 575 141 600 138C625 135 650 125 675 128C700 131 725 147 750 151C775 155 800 147 825 146C850 145 875 151 887.5 154L900 157L900 89L887.5 88C875 87 850 85 825 88C800 91 775 99 750 96C725 93 700 79 675 78C650 77 625 89 600 88C575 87 550 73 525 71C500 69 475 79 450 81C425 83 400 77 375 74C350 71 325 71 300 73C275 75 250 79 225 80C200 81 175 79 150 76C125 73 100 69 75 70C50 71 25 77 12.5 80L0 83Z" fill="#a5b8ff"></path><path d="M0 181L12.5 176C25 171 50 161 75 161C100 161 125 171 150 179C175 187 200 193 225 192C250 191 275 183 300 179C325 175 350 175 375 175C400 175 425 175 450 178C475 181 500 187 525 190C550 193 575 193 600 190C625 187 650 181 675 182C700 183 725 191 750 195C775 199 800 199 825 202C850 205 875 211 887.5 214L900 217L900 155L887.5 152C875 149 850 143 825 144C800 145 775 153 750 149C725 145 700 129 675 126C650 123 625 133 600 136C575 139 550 135 525 133C500 131 475 131 450 131C425 131 400 131 375 128C350 125 325 119 300 120C275 121 250 129 225 132C200 135 175 133 150 128C125 123 100 115 75 117C50 119 25 131 12.5 137L0 143Z" fill="#afc1ff"></path><path d="M0 265L12.5 272C25 279 50 293 75 297C100 301 125 295 150 295C175 295 200 301 225 304C250 307 275 307 300 306C325 305 350 303 375 299C400 295 425 289 450 294C475 299 500 315 525 321C550 327 575 323 600 321C625 319 650 319 675 316C700 313 725 307 750 307C775 307 800 313 825 311C850 309 875 299 887.5 294L900 289L900 215L887.5 212C875 209 850 203 825 200C800 197 775 197 750 193C725 189 700 181 675 180C650 179 625 185 600 188C575 191 550 191 525 188C500 185 475 179 450 176C425 173 400 173 375 173C350 173 325 173 300 177C275 181 250 189 225 190C200 191 175 185 150 177C125 169 100 159 75 159C50 159 25 169 12.5 174L0 179Z" fill="#b9c8ff"></path><path d="M0 307L12.5 314C25 321 50 335 75 338C100 341 125 333 150 331C175 329 200 333 225 337C250 341 275 345 300 344C325 343 350 337 375 332C400 327 425 323 450 327C475 331 500 343 525 349C550 355 575 355 600 355C625 355 650 355 675 350C700 345 725 335 750 333C775 331 800 337 825 336C850 335 875 327 887.5 323L900 319L900 287L887.5 292C875 297 850 307 825 309C800 311 775 305 750 305C725 305 700 311 675 314C650 317 625 317 600 319C575 321 550 325 525 319C500 313 475 297 450 292C425 287 400 293 375 297C350 301 325 303 300 304C275 305 250 305 225 302C200 299 175 293 150 293C125 293 100 299 75 295C50 291 25 277 12.5 270L0 263Z" fill="#bfcdff"></path><path d="M0 343L12.5 348C25 353 50 363 75 363C100 363 125 353 150 353C175 353 200 363 225 369C250 375 275 377 300 374C325 371 350 363 375 358C400 353 425 351 450 357C475 363 500 377 525 384C550 391 575 391 600 389C625 387 650 383 675 378C700 373 725 367 750 366C775 365 800 369 825 365C850 361 875 349 887.5 343L900 337L900 317L887.5 321C875 325 850 333 825 334C800 335 775 329 750 331C725 333 700 343 675 348C650 353 625 353 600 353C575 353 550 353 525 347C500 341 475 329 450 325C425 321 400 325 375 330C350 335 325 341 300 342C275 343 250 339 225 335C200 331 175 327 150 329C125 331 100 339 75 336C50 333 25 319 12.5 312L0 305Z" fill="#bfcdff"></path><path d="M0 397L12.5 402C25 407 50 417 75 416C100 415 125 403 150 400C175 397 200 403 225 408C250 413 275 417 300 417C325 417 350 413 375 409C400 405 425 401 450 407C475 413 500 429 525 433C550 437 575 429 600 427C625 425 650 429 675 424C700 419 725 405 750 403C775 401 800 411 825 408C850 405 875 389 887.5 381L900 373L900 335L887.5 341C875 347 850 359 825 363C800 367 775 363 750 364C725 365 700 371 675 376C650 381 625 385 600 387C575 389 550 389 525 382C500 375 475 361 450 355C425 349 400 351 375 356C350 361 325 369 300 372C275 375 250 373 225 367C200 361 175 351 150 351C125 351 100 361 75 361C50 361 25 351 12.5 346L0 341Z" fill="#b9c8ff"></path><path d="M0 541L12.5 540C25 539 50 537 75 533C100 529 125 523 150 524C175 525 200 533 225 534C250 535 275 529 300 525C325 521 350 519 375 522C400 525 425 533 450 536C475 539 500 537 525 539C550 541 575 547 600 546C625 545 650 537 675 535C700 533 725 537 750 538C775 539 800 537 825 534C850 531 875 527 887.5 525L900 523L900 371L887.5 379C875 387 850 403 825 406C800 409 775 399 750 401C725 403 700 417 675 422C650 427 625 423 600 425C575 427 550 435 525 431C500 427 475 411 450 405C425 399 400 403 375 407C350 411 325 415 300 415C275 415 250 411 225 406C200 401 175 395 150 398C125 401 100 413 75 414C50 415 25 405 12.5 400L0 395Z" fill="#afc1ff"></path><path d="M0 577L12.5 576C25 575 50 573 75 571C100 569 125 567 150 566C175 565 200 565 225 565C250 565 275 565 300 565C325 565 350 565 375 565C400 565 425 565 450 566C475 567 500 569 525 571C550 573 575 575 600 574C625 573 650 569 675 569C700 569 725 573 750 574C775 575 800 573 825 571C850 569 875 567 887.5 566L900 565L900 521L887.5 523C875 525 850 529 825 532C800 535 775 537 750 536C725 535 700 531 675 533C650 535 625 543 600 544C575 545 550 539 525 537C500 535 475 537 450 534C425 531 400 523 375 520C350 517 325 519 300 523C275 527 250 533 225 532C200 531 175 523 150 522C125 521 100 527 75 531C50 535 25 537 12.5 538L0 539Z" fill="#a5b8ff"></path><path d="M0 601L12.5 601C25 601 50 601 75 601C100 601 125 601 150 601C175 601 200 601 225 601C250 601 275 601 300 601C325 601 350 601 375 601C400 601 425 601 450 601C475 601 500 601 525 601C550 601 575 601 600 601C625 601 650 601 675 601C700 601 725 601 750 601C775 601 800 601 825 601C850 601 875 601 887.5 601L900 601L900 563L887.5 564C875 565 850 567 825 569C800 571 775 573 750 572C725 571 700 567 675 567C650 567 625 571 600 572C575 573 550 571 525 569C500 567 475 565 450 564C425 563 400 563 375 563C350 563 325 563 300 563C275 563 250 563 225 563C200 563 175 563 150 564C125 565 100 567 75 569C50 571 25 573 12.5 574L0 575Z" fill="#9cb0ff"></path></svg>